# xmcd
#
# Track frame offsets:
#	150
#	13441
#	29863
#	42455
#	60904
#	70512
#	93262
#	117590
#	131142
#	146673
#	159917
#	177341
#	192891
#	211188
#	232621
#	249467
#
# Disc length: 3631 seconds
#
# Revision: 0
# Processed by: cddbd v1.5.2PL0 Copyright (c) Steve Scherf et al.
# Submitted via: EasyCDDAExtractor 16.0.8.2
#
DISCID=de0e2d10
DTITLE=Άνευ ερμηνευτού - Σόλο μπουζούκι 2
DYEAR=2014
DGENRE=Σόλο μπουζούκι
TTITLE0=Ο χορός του Σάκαινα [Γ. Ζαμπέτας, μ. Στ. Ξαρχάκος]
TTITLE1=Χαρταετοί κ ο χασαποσέρβικος[Δ.Χριστοδούλου,μ.Μ.Θεοδωράκης]
TTITLE2=Σούστα [Μαν. Καραντίνης, μ. ιδίου]
TTITLE3=Πρεβεζιάνικος συρτός [Παν. Στεργίου, μ. Τάσος Χαλκιάς]
TTITLE4=Με παρατάς [Συγκρ. μπουζ. Δρόμος, μ. Ν. Αργυρόπουλος]
TTITLE5=Ζεϊμπέκικο σε 3 χορδές [Μαν. Καραντίνης, μ. ιδίου]
TTITLE6=Το οργανικό από το Λαύριο [Μαν. Πάππος, μ. Βαγγ. Κορακάκης]
TTITLE7=Το τανγκό του Πειραιά [Δημ. Μαργιολάς, μ. Μιχ. Κουμπιός]
TTITLE8=Περιπλάνηση [Θαν. Βασιλάς, μ. ιδίου]
TTITLE9=Το ζεϊμπέκικο του Παράσχου [Βαγγ. Κορακάκης, μ. ιδίου]
TTITLE10=Χασάπικος [Γρηγ. Βασιλάς κ Πυρήνας, μ. Σ. Ξαρχάκος]
TTITLE11=Επιστροφή(Ζυρίχη-Προμαχώνας)[Σ.Γκούμας,μ.Ν.Πορτοκάλογλου]
TTITLE12=Κένταυρος [Δημ. Χιονάς, μ. ιδίου]
TTITLE13=Ο Νονός (The godfather)[Κουαρτέτο μπουζ. Ραστ, Νίνο Ρότα]
TTITLE14=Σαν όνειρο [Κ. Ζαριδάκης, μ. Κόρα Μικαελιάν]
TTITLE15=Ελεγεία [Λάκης Λαυτσής, μ. ιδίου]
EXTD=
EXTT0=
EXTT1=
EXTT2=
EXTT3=
EXTT4=
EXTT5=
EXTT6=
EXTT7=
EXTT8=
EXTT9=
EXTT10=
EXTT11=
EXTT12=
EXTT13=
EXTT14=
EXTT15=
PLAYORDER=
